<svg version="1.1" id="Layer_1" xmlns="http://www.w3.org/2000/svg" xmlns:xlink="http://www.w3.org/1999/xlink" x="0px" y="0px"
	 width="100%" viewBox="0 0 786 795" enable-background="new 0 0 786 795" xml:space="preserve">

<path fill="#e009c4" opacity="1.000000" stroke="none" 
	d="
M306.496643,260.642456 
	C350.775726,260.451569 394.601807,260.499268 438.427795,260.451752 
	C468.751465,260.418884 499.075378,260.304779 529.398071,260.079315 
	C532.807129,260.053955 533.921326,260.867157 533.917236,264.466003 
	C533.817139,353.618774 534.837891,442.786652 533.507385,531.919678 
	C532.528259,597.515808 508.143982,654.800049 463.484863,702.994873 
	C425.880615,743.576294 380.010254,770.609314 325.647766,781.269714 
	C235.015167,799.042419 155.043198,776.799622 87.601143,713.223022 
	C46.790474,674.751343 21.052740,627.315674 11.524138,572.058167 
	C-3.012136,487.760590 17.499603,412.499908 74.265648,348.137390 
	C112.910316,304.321259 161.575058,277.050629 218.865311,265.312256 
	C225.159988,264.022522 225.162827,264.030853 225.163269,270.507202 
	C225.164169,283.671844 225.089966,296.837219 225.221222,310.000549 
	C225.250183,312.904785 224.602798,314.256165 221.473557,315.103424 
	C135.371063,338.416626 80.060982,393.156067 60.945023,480.209991 
	C44.754185,553.942932 65.349731,619.401123 117.745857,673.890076 
	C154.866287,712.493286 200.959412,734.297668 254.310898,737.486206 
	C335.638824,742.346741 400.501801,710.534668 447.670135,644.100403 
	C470.103363,612.504333 481.904022,576.723328 484.244965,537.509338 
	C483.516357,535.489380 483.406036,533.841736 483.413483,532.168579 
	C483.478058,517.715881 483.301666,503.262726 483.507080,488.322906 
	C483.207855,481.510162 483.391266,475.180969 483.388763,468.854034 
	C483.368927,418.724121 483.382233,368.594177 483.373413,318.464264 
	C483.372070,310.676208 483.328552,310.628754 475.651855,310.627289 
	C422.357574,310.617096 369.063324,310.627960 315.769043,310.608002 
	C312.786774,310.606903 309.761871,310.935211 306.423096,309.656555 
	C304.382385,307.647034 304.452026,305.433044 304.440430,303.289185 
	C304.374878,291.167847 304.374146,279.046143 304.441620,266.924805 
	C304.453522,264.786926 304.343445,262.559723 306.496643,260.642456 
z"/>
<path fill="#ffffff" opacity="1.000000" stroke="none" 
	d="
M306.804352,259.971375 
	C305.784607,261.655884 305.973724,263.208099 305.973145,264.666656 
	C305.967468,279.197266 305.996277,293.727844 306.187012,308.710022 
	C308.182190,311.873016 307.593048,314.958527 307.595184,317.903717 
	C307.633270,370.179260 307.621826,422.454803 307.622284,474.730377 
	C307.622284,475.396301 307.622040,476.062256 307.622314,476.728180 
	C307.626434,486.371613 307.626434,486.376465 317.040955,486.376862 
	C369.815979,486.378998 422.590973,486.368073 475.365997,486.401794 
	C478.319031,486.403656 481.392944,485.868164 484.447235,487.970459 
	C485.119080,504.355988 485.304138,520.358582 484.380249,536.708862 
	C409.838409,537.090454 335.516479,537.103577 261.194733,537.213623 
	C258.015350,537.218323 256.917969,536.463562 256.923096,533.088196 
	C257.059967,442.936005 255.956650,352.763733 257.535095,262.638153 
	C258.606720,201.447708 281.300781,147.381500 321.522583,101.075096 
	C355.721771,61.702362 398.003571,34.667713 448.171631,20.319504 
	C483.371735,10.252180 519.264771,7.665166 555.523682,12.789940 
	C634.578369,23.963402 696.203857,63.384247 740.703979,129.278320 
	C766.489014,167.459732 780.592773,210.023987 783.108276,256.099487 
	C787.955811,344.892609 756.196960,418.403564 688.970581,476.243744 
	C654.728638,505.704803 614.702271,523.978088 570.324280,532.654480 
	C566.802063,533.343140 565.661194,532.668091 565.717712,528.878052 
	C565.921326,515.216614 565.928772,501.547852 565.698059,487.887115 
	C565.637512,484.302856 566.883484,483.251648 570.213623,482.378387 
	C641.152039,463.776398 691.258423,420.728516 719.548950,353.108978 
	C733.555298,319.630981 737.792969,284.460846 733.327942,248.309372 
	C727.315918,199.631866 707.032532,157.755508 672.667603,122.996536 
	C639.973145,89.927299 600.435791,69.258392 554.363953,62.087414 
	C462.556549,47.797821 374.230682,92.083160 330.631775,174.142136 
	C316.477905,200.781647 308.240448,229.246231 306.804352,259.971375 
z"/>

</svg>